<mxfile host="app.diagrams.net" modified="2024-10-09T09:45:10.452Z" agent="Mozilla/5.0 (Windows NT 10.0; Win64; x64) AppleWebKit/537.36 (KHTML, like Gecko) Chrome/129.0.0.0 Safari/537.36" version="22.1.21" etag="JQMvUd_GTL7f5jt1giHz" type="github">
  <diagram name="Page-1" id="6DLZNbmaYd7OtqTt1ENY">
    <mxGraphModel>
      <root>
        <mxCell id="0" />
        <mxCell id="1" parent="0" />
      </root>
    </mxGraphModel>
  </diagram>
</mxfile>
